<?xml version="1.0" encoding="utf-8"?>
<!-- Generator: Adobe Illustrator 24.1.1, SVG Export Plug-In . SVG Version: 6.00 Build 0)  -->
<svg version="1.1" id="Layer_1" xmlns="http://www.w3.org/2000/svg" xmlns:xlink="http://www.w3.org/1999/xlink" x="0px" y="0px"
	 viewBox="0 0 512 512" style="enable-background:new 0 0 512 512;" xml:space="preserve">
<style type="text/css">
	.st0{fill:#C2C2C2;}
	.st1{fill:url(#SVGID_1_);}
	.st2{fill:#FFFFFF;}
</style>
<g>
	<path class="st0" d="M61.9,451.8L83.2,374l-5-8C57.1,332.4,46,293.5,46,253.7c0-116.3,94.7-210.9,211-210.9
		c56.3,0,109.4,21.9,149.2,61.8c39.8,39.9,61.7,92.9,61.7,149.2c0,116.3-94.7,210.9-210.9,210.9h-0.1c-37.8-0.1-75-10.2-107.3-29.5
		l-7.7-4.6L61.9,451.8 M257.2,0C117.2,0,3.3,113.8,3.3,253.7C3.2,298.4,15,342.1,37.1,380.6L1.1,512l134.5-35.3
		c37.1,20.2,78.9,30.9,121.3,30.9h0.1c140,0,253.9-113.8,253.9-253.7c0.1-67.8-26.3-131.6-74.2-179.5C388.8,26.4,325.1,0,257.2,0"/>
	
		<linearGradient id="SVGID_1_" gradientUnits="userSpaceOnUse" x1="-0.6472" y1="513.1033" x2="1.4526" y2="513.1033" gradientTransform="matrix(1.417005e-14 -232.502 231.4144 1.423664e-14 -118483.9219 347.9531)">
		<stop  offset="0" style="stop-color:#20B038"/>
		<stop  offset="1" style="stop-color:#60D66A"/>
	</linearGradient>
	<path class="st1" d="M12.6,498.4L47,373.1c-21.2-36.7-32.3-78.4-32.3-120.9c0-133.4,108.7-241.9,241.9-241.9
		c64.8,0,125.5,25.2,171.2,70.9c45.7,45.7,70.8,106.5,70.8,171.2c0,133.4-108.7,241.9-241.9,241.9h-0.1
		c-40.5,0-80.3-10.2-115.6-29.4L12.6,498.4z"/>
	<path class="st2" d="M3.8,507.2l35.6-129.8C17.5,339.4,5.9,296.3,6,252.2C6,113.9,118.5,1.6,256.7,1.6c67.1,0,130,26.1,177.3,73.4
		c47.4,47.4,73.4,110.3,73.3,177.3c0,138.2-112.5,250.6-250.7,250.6h-0.1c-41.9,0-83.2-10.6-119.8-30.5L3.8,507.2z M142.9,426.9
		l7.6,4.6c32,19,68.6,29,106,29.1h0.1c114.8,0,208.3-93.4,208.3-208.3c0-55.6-21.6-107.9-60.9-147.4
		c-39.3-39.4-91.7-61.1-147.4-61.1c-114.9,0-208.4,93.4-208.4,208.3c0,39.3,10.9,77.6,31.9,110.8l4.9,7.9l-21,76.8L142.9,426.9z"/>
	<path class="st2" d="M194,147.2c-4.7-10.5-9.6-10.7-14.1-10.8c-3.6-0.1-7.8-0.1-12-0.1c-4.2,0-10.9,1.6-16.7,7.8
		c-5.8,6.3-21.9,21.4-21.9,52.3c0,30.8,22.5,60.6,25.6,64.8c3.1,4.2,43.4,69.5,107,94.6c52.9,20.9,63.7,16.7,75.1,15.6
		c11.5-1.1,37-15.1,42.3-29.8c5.2-14.7,5.2-27.2,3.6-29.8c-1.6-2.6-5.8-4.2-12-7.3c-6.3-3.1-37-18.3-42.8-20.4
		c-5.8-2.2-10-3.1-14.1,3.1c-4.2,6.3-16.2,20.3-19.8,24.5c-3.6,4.2-7.3,4.7-13.6,1.6c-6.2-3.1-26.4-9.7-50.4-31.1
		c-18.6-16.6-31.2-37.1-34.9-43.4c-3.6-6.3-0.4-9.6,2.8-12.7c2.8-2.8,6.2-7.3,9.4-10.9c3.1-3.6,4.2-6.3,6.3-10.5
		c2-4.2,1.1-7.8-0.5-10.9S199.5,159.6,194,147.2z"/>
</g>
</svg>
